<svg width="18" height="18" viewBox="0 0 18 18" fill="none" xmlns="http://www.w3.org/2000/svg">
<path d="M7.5 7.75C7.5 8.04547 7.4418 8.33806 7.32873 8.61104C7.21566 8.88402 7.04992 9.13206 6.84099 9.34099C6.63206 9.54992 6.38402 9.71566 6.11104 9.82873C5.83806 9.9418 5.54547 10 5.25 10C4.95453 10 4.66194 9.9418 4.38896 9.82873C4.11598 9.71566 3.86794 9.54992 3.65901 9.34099C3.45008 9.13206 3.28434 8.88402 3.17127 8.61104C3.0582 8.33806 3 8.04547 3 7.75C3 7.15326 3.23705 6.58097 3.65901 6.15901C4.08097 5.73705 4.65326 5.5 5.25 5.5C5.84674 5.5 6.41903 5.73705 6.84099 6.15901C7.26295 6.58097 7.5 7.15326 7.5 7.75ZM6.25 7.75C6.25 7.48478 6.14464 7.23043 5.95711 7.04289C5.76957 6.85536 5.51522 6.75 5.25 6.75C4.98478 6.75 4.73043 6.85536 4.54289 7.04289C4.35536 7.23043 4.25 7.48478 4.25 7.75C4.25 8.01522 4.35536 8.26957 4.54289 8.45711C4.73043 8.64464 4.98478 8.75 5.25 8.75C5.51522 8.75 5.76957 8.64464 5.95711 8.45711C6.14464 8.26957 6.25 8.01522 6.25 7.75ZM5.25 15.5C5.84674 15.5 6.41903 15.2629 6.84099 14.841C7.26295 14.419 7.5 13.8467 7.5 13.25C7.5 12.6533 7.26295 12.081 6.84099 11.659C6.41903 11.2371 5.84674 11 5.25 11C4.65326 11 4.08097 11.2371 3.65901 11.659C3.23705 12.081 3 12.6533 3 13.25C3 13.8467 3.23705 14.419 3.65901 14.841C4.08097 15.2629 4.65326 15.5 5.25 15.5ZM5.25 14.25C4.98478 14.25 4.73043 14.1446 4.54289 13.9571C4.35536 13.7696 4.25 13.5152 4.25 13.25C4.25 12.9848 4.35536 12.7304 4.54289 12.5429C4.73043 12.3554 4.98478 12.25 5.25 12.25C5.51522 12.25 5.76957 12.3554 5.95711 12.5429C6.14464 12.7304 6.25 12.9848 6.25 13.25C6.25 13.5152 6.14464 13.7696 5.95711 13.9571C5.76957 14.1446 5.51522 14.25 5.25 14.25ZM3.625 3C3.45924 3 3.30027 3.06585 3.18306 3.18306C3.06585 3.30027 3 3.45924 3 3.625C3 3.79076 3.06585 3.94973 3.18306 4.06694C3.30027 4.18415 3.45924 4.25 3.625 4.25H14.375C14.5408 4.25 14.6997 4.18415 14.8169 4.06694C14.9342 3.94973 15 3.79076 15 3.625C15 3.45924 14.9342 3.30027 14.8169 3.18306C14.6997 3.06585 14.5408 3 14.375 3H3.625ZM8.5 7.875C8.5 7.53 8.78 7.25 9.125 7.25H14.375C14.5408 7.25 14.6997 7.31585 14.8169 7.43306C14.9342 7.55027 15 7.70924 15 7.875C15 8.04076 14.9342 8.19973 14.8169 8.31694C14.6997 8.43415 14.5408 8.5 14.375 8.5H9.125C8.78 8.5 8.5 8.22 8.5 7.875ZM9.125 12.5C8.95924 12.5 8.80027 12.5658 8.68306 12.6831C8.56585 12.8003 8.5 12.9592 8.5 13.125C8.5 13.2908 8.56585 13.4497 8.68306 13.5669C8.80027 13.6842 8.95924 13.75 9.125 13.75H14.375C14.5408 13.75 14.6997 13.6842 14.8169 13.5669C14.9342 13.4497 15 13.2908 15 13.125C15 12.9592 14.9342 12.8003 14.8169 12.6831C14.6997 12.5658 14.5408 12.5 14.375 12.5H9.125ZM3.125 0C2.2962 0 1.50134 0.32924 0.915291 0.915291C0.32924 1.50134 0 2.2962 0 3.125V14.875C0 15.7038 0.32924 16.4987 0.915291 17.0847C1.50134 17.6708 2.2962 18 3.125 18H14.875C15.7038 18 16.4987 17.6708 17.0847 17.0847C17.6708 16.4987 18 15.7038 18 14.875V3.125C18 2.2962 17.6708 1.50134 17.0847 0.915291C16.4987 0.32924 15.7038 0 14.875 0H3.125ZM1.25 3.125C1.25 2.62772 1.44754 2.15081 1.79917 1.79917C2.15081 1.44754 2.62772 1.25 3.125 1.25H14.875C15.3723 1.25 15.8492 1.44754 16.2008 1.79917C16.5525 2.15081 16.75 2.62772 16.75 3.125V14.875C16.75 15.3723 16.5525 15.8492 16.2008 16.2008C15.8492 16.5525 15.3723 16.75 14.875 16.75H3.125C2.62772 16.75 2.15081 16.5525 1.79917 16.2008C1.44754 15.8492 1.25 15.3723 1.25 14.875V3.125Z" fill="#8E8E90"/>
</svg>
